# xmcd CD database file
#
# Track frame offsets:
#	150
#	23215
#	42824
#	73518
#	95541
#	105441
#	164545
#	206663
#
# Disc length: 3161 seconds
#
# Revision: 1
# Processed by: cddbd v1.5PL3 Copyright (c) Steve Scherf et al.
# Submitted via: CDex 1.51
#
DISCID=640c5708
DTITLE=Red House - Captured Live !!! [CD 2)
DYEAR=2003
DGENRE=Blues
TTITLE0=Running on Back
TTITLE1=House On a hill
TTITLE2=I'm ready
TTITLE3=Hooked on the road
TTITLE4=Fishing blues
TTITLE5=Too many dirty dishes
TTITLE6=Drivin'
TTITLE7=La plaga/Good Golly Miss Molly
EXTD=YEAR: 2003
EXTT0=
EXTT1=
EXTT2=
EXTT3=
EXTT4=
EXTT5=
EXTT6=
EXTT7=
PLAYORDER=
